<svg width="94" height="28" viewBox="0 0 94 28" fill="none" xmlns="http://www.w3.org/2000/svg">
<rect x="0.5" y="0.5" width="93" height="27" rx="7.5" fill="white"/>
<rect x="0.5" y="0.5" width="93" height="27" rx="7.5" stroke="#E7E5E4"/>
<path fill-rule="evenodd" clip-rule="evenodd" d="M20.4706 8.58824H16.3529C15.0534 8.58824 14 9.64169 14 10.9412V19.6471C14 20.9466 15.0534 22 16.3529 22H23.4118C24.7113 22 25.7647 20.9466 25.7647 19.6471V10.9412C25.7647 9.64169 24.7113 8.58824 23.4118 8.58824H22.5882V9.29412H23.4118C24.3214 9.29412 25.0588 10.0315 25.0588 10.9412V19.6471C25.0588 20.5567 24.3214 21.2941 23.4118 21.2941H16.3529C15.4433 21.2941 14.7059 20.5567 14.7059 19.6471V10.9412C14.7059 10.0315 15.4433 9.29412 16.3529 9.29412H20.4706V8.58824ZM20.7059 9.29412V8.58824H22.3529V9.29412H20.7059Z" fill="#FF3F03"/>
<path fill-rule="evenodd" clip-rule="evenodd" d="M20.7059 17.2558L22.353 16.3147L22.5883 16.1802L23.5159 15.6502C23.8153 15.4791 24 15.1607 24 14.8158C24 14.2256 23.3624 13.8555 22.8499 14.1484L22.353 14.4323V12.5499L23.5159 11.8854C23.8153 11.7144 24 11.396 24 11.0511C24 10.4609 23.3624 10.0908 22.8499 10.3837L22.353 10.6676V6.70615C22.353 6.16475 21.7681 5.82534 21.298 6.09394C20.9319 6.30318 20.7059 6.69256 20.7059 7.11428V11.5294V11.6088V13.4911V13.7647V15.3735L19.0589 16.3147V14.5678L18.3996 14.9445C17.8706 15.2707 17.4144 15.6585 17.4118 16.2305V17.1765V17.2558V19.1382V19.4118V19.8055C17.4118 20.3469 17.9967 20.6863 18.4667 20.4177C18.8329 20.2085 19.0589 19.8191 19.0589 19.3974V18.197L20.4706 17.3903L20.7059 17.2558ZM17.2942 19.2054V18.9412C17.2942 18.3725 17.2942 17.8038 16.8021 17.6043L16.2489 17.9203C15.9495 18.0914 15.7647 18.4098 15.7647 18.7547C15.7647 19.3449 16.4024 19.715 16.9149 19.4221L17.2942 19.2054ZM17.4118 15.3735L19.0589 14.4323L19.2942 14.2979L20.5883 13.5584V13.2941C20.5883 12.7255 20.5883 12.1568 20.0962 11.9572L19.0589 12.5499V11.8826C19.0589 11.3412 18.474 11.0018 18.0039 11.2704C17.6378 11.4796 17.4118 11.869 17.4118 12.2908V13.4911L16.2489 14.1556C15.9495 14.3267 15.7647 14.6451 15.7647 14.99C15.7647 15.5802 16.4024 15.9503 16.9149 15.6574L17.1765 15.5079L17.4118 15.3735ZM22.353 16.4502L21.6938 16.8269C21.1965 17.1334 20.7636 17.4944 20.7112 18.0115C20.7706 18.5004 21.3169 18.789 21.7609 18.5354C22.127 18.3261 22.353 17.9367 22.353 17.515V16.4502Z" fill="#0C0A09"/>
<path d="M34.552 18V16.728H35.68V10.872H34.552V9.6H37.972C39.092 9.6 39.948 9.884 40.54 10.452C41.132 11.02 41.428 11.872 41.428 13.008V14.592C41.428 15.728 41.132 16.58 40.54 17.148C39.948 17.716 39.092 18 37.972 18H34.552ZM37.12 16.692H37.984C38.664 16.692 39.168 16.516 39.496 16.164C39.824 15.812 39.988 15.304 39.988 14.64V12.972C39.988 12.292 39.824 11.78 39.496 11.436C39.168 11.084 38.664 10.908 37.984 10.908H37.12V16.692ZM45.6645 18.168C45.0725 18.168 44.5405 18.048 44.0685 17.808C43.6045 17.56 43.2365 17.212 42.9645 16.764C42.7005 16.308 42.5685 15.764 42.5685 15.132V14.94C42.5685 14.308 42.7005 13.764 42.9645 13.308C43.2365 12.852 43.6045 12.504 44.0685 12.264C44.5405 12.024 45.0725 11.904 45.6645 11.904C46.2565 11.904 46.7845 12.024 47.2485 12.264C47.7125 12.504 48.0765 12.852 48.3405 13.308C48.6125 13.764 48.7485 14.308 48.7485 14.94V15.132C48.7485 15.764 48.6125 16.308 48.3405 16.764C48.0765 17.212 47.7125 17.56 47.2485 17.808C46.7845 18.048 46.2565 18.168 45.6645 18.168ZM45.6645 16.944C46.1685 16.944 46.5805 16.784 46.9005 16.464C47.2205 16.136 47.3805 15.68 47.3805 15.096V14.976C47.3805 14.392 47.2205 13.94 46.9005 13.62C46.5805 13.292 46.1685 13.128 45.6645 13.128C45.1605 13.128 44.7485 13.292 44.4285 13.62C44.1085 13.94 43.9485 14.392 43.9485 14.976V15.096C43.9485 15.68 44.1085 16.136 44.4285 16.464C44.7485 16.784 45.1605 16.944 45.6645 16.944ZM49.9278 15.06V14.88C49.9278 14.256 50.0518 13.724 50.2998 13.284C50.5478 12.836 50.8798 12.496 51.2958 12.264C51.7118 12.024 52.1678 11.904 52.6638 11.904C53.2238 11.904 53.6478 12.004 53.9358 12.204C54.2318 12.404 54.4478 12.62 54.5838 12.852H54.7878V12.072H56.1318V19.128C56.1318 19.52 56.0198 19.828 55.7958 20.052C55.5718 20.284 55.2678 20.4 54.8838 20.4H50.8998V19.2H54.4158C54.6478 19.2 54.7638 19.08 54.7638 18.84V17.124H54.5598C54.4718 17.26 54.3518 17.4 54.1998 17.544C54.0478 17.68 53.8478 17.796 53.5998 17.892C53.3518 17.988 53.0398 18.036 52.6638 18.036C52.1678 18.036 51.7118 17.92 51.2958 17.688C50.8798 17.448 50.5478 17.108 50.2998 16.668C50.0518 16.22 49.9278 15.684 49.9278 15.06ZM53.0478 16.824C53.5438 16.824 53.9558 16.668 54.2838 16.356C54.6118 16.036 54.7758 15.592 54.7758 15.024V14.904C54.7758 14.328 54.6118 13.884 54.2838 13.572C53.9638 13.26 53.5518 13.104 53.0478 13.104C52.5518 13.104 52.1358 13.26 51.7998 13.572C51.4718 13.884 51.3078 14.328 51.3078 14.904V15.024C51.3078 15.592 51.4718 16.036 51.7998 16.356C52.1358 16.668 52.5518 16.824 53.0478 16.824ZM57.8799 18V12.072H59.2359V12.732H59.4399C59.5439 12.532 59.7159 12.356 59.9559 12.204C60.2039 12.044 60.5319 11.964 60.9399 11.964C61.3719 11.964 61.7199 12.052 61.9839 12.228C62.2479 12.404 62.4479 12.628 62.5839 12.9H62.7759C62.9119 12.628 63.1079 12.404 63.3639 12.228C63.6199 12.052 63.9839 11.964 64.4559 11.964C64.8239 11.964 65.1559 12.044 65.4519 12.204C65.7559 12.364 65.9959 12.6 66.1719 12.912C66.3559 13.224 66.4479 13.612 66.4479 14.076V18H65.0679V14.172C65.0679 13.828 64.9759 13.568 64.7919 13.392C64.6079 13.208 64.3519 13.116 64.0239 13.116C63.6639 13.116 63.3759 13.236 63.1599 13.476C62.9519 13.708 62.8479 14.044 62.8479 14.484V18H61.4799V14.172C61.4799 13.828 61.3879 13.568 61.2039 13.392C61.0199 13.208 60.7639 13.116 60.4359 13.116C60.0679 13.116 59.7799 13.236 59.5719 13.476C59.3639 13.708 59.2599 14.044 59.2599 14.484V18H57.8799ZM68.9975 18.168C68.6935 18.168 68.4375 18.068 68.2295 17.868C68.0295 17.668 67.9295 17.412 67.9295 17.1C67.9295 16.796 68.0295 16.544 68.2295 16.344C68.4375 16.144 68.6935 16.044 68.9975 16.044C69.3015 16.044 69.5535 16.144 69.7535 16.344C69.9535 16.544 70.0535 16.8 70.0535 17.112C70.0535 17.424 69.9535 17.68 69.7535 17.88C69.5535 18.072 69.3015 18.168 68.9975 18.168ZM71.5908 18V12.072H72.9708V18H71.5908ZM72.2748 11.316C72.0268 11.316 71.8108 11.236 71.6268 11.076C71.4508 10.908 71.3628 10.688 71.3628 10.416C71.3628 10.144 71.4508 9.928 71.6268 9.768C71.8108 9.6 72.0268 9.516 72.2748 9.516C72.5388 9.516 72.7548 9.6 72.9228 9.768C73.0988 9.928 73.1868 10.144 73.1868 10.416C73.1868 10.688 73.0988 10.908 72.9228 11.076C72.7548 11.236 72.5388 11.316 72.2748 11.316ZM77.5278 18.168C76.9358 18.168 76.4038 18.048 75.9318 17.808C75.4678 17.56 75.0998 17.212 74.8278 16.764C74.5638 16.308 74.4318 15.764 74.4318 15.132V14.94C74.4318 14.308 74.5638 13.764 74.8278 13.308C75.0998 12.852 75.4678 12.504 75.9318 12.264C76.4038 12.024 76.9358 11.904 77.5278 11.904C78.1198 11.904 78.6478 12.024 79.1118 12.264C79.5758 12.504 79.9398 12.852 80.2038 13.308C80.4758 13.764 80.6118 14.308 80.6118 14.94V15.132C80.6118 15.764 80.4758 16.308 80.2038 16.764C79.9398 17.212 79.5758 17.56 79.1118 17.808C78.6478 18.048 78.1198 18.168 77.5278 18.168ZM77.5278 16.944C78.0318 16.944 78.4438 16.784 78.7638 16.464C79.0838 16.136 79.2438 15.68 79.2438 15.096V14.976C79.2438 14.392 79.0838 13.94 78.7638 13.62C78.4438 13.292 78.0318 13.128 77.5278 13.128C77.0238 13.128 76.6118 13.292 76.2918 13.62C75.9718 13.94 75.8118 14.392 75.8118 14.976V15.096C75.8118 15.68 75.9718 16.136 76.2918 16.464C76.6118 16.784 77.0238 16.944 77.5278 16.944Z" fill="#0C0A09"/>
</svg>
