<svg width="81" height="28" viewBox="0 0 81 28" fill="none" xmlns="http://www.w3.org/2000/svg">
<rect x="0.5" y="0.5" width="80" height="27" rx="7.5" fill="white"/>
<rect x="0.5" y="0.5" width="80" height="27" rx="7.5" stroke="#E7E5E4"/>
<path fill-rule="evenodd" clip-rule="evenodd" d="M20 14C20 12.8954 20.8954 12 22 12C23.1046 12 24 12.8954 24 14C24 15.1046 23.1046 16 22 16C20.8954 16 20 15.1046 20 14Z" fill="#1ABCFE"/>
<path fill-rule="evenodd" clip-rule="evenodd" d="M16 18C16 16.8954 16.8954 16 18 16H20V18C20 19.1046 19.1046 20 18 20C16.8954 20 16 19.1046 16 18Z" fill="#0ACF83"/>
<path fill-rule="evenodd" clip-rule="evenodd" d="M20 8V12H22C23.1046 12 24 11.1046 24 10C24 8.89543 23.1046 8 22 8H20Z" fill="#FF7262"/>
<path fill-rule="evenodd" clip-rule="evenodd" d="M16 10C16 11.1046 16.8954 12 18 12H20V8H18C16.8954 8 16 8.89543 16 10Z" fill="#F24E1E"/>
<path fill-rule="evenodd" clip-rule="evenodd" d="M16 14C16 15.1046 16.8954 16 18 16H20V12H18C16.8954 12 16 12.8954 16 14Z" fill="#A259FF"/>
<path d="M34.828 18V9.6H40.06V10.908H36.28V13.128H39.76V14.448H36.28V18H34.828ZM41.2979 18V12.072H42.6779V18H41.2979ZM41.9819 11.316C41.7339 11.316 41.5179 11.236 41.3339 11.076C41.1579 10.908 41.0699 10.688 41.0699 10.416C41.0699 10.144 41.1579 9.928 41.3339 9.768C41.5179 9.6 41.7339 9.516 41.9819 9.516C42.2459 9.516 42.4619 9.6 42.6299 9.768C42.8059 9.928 42.8939 10.144 42.8939 10.416C42.8939 10.688 42.8059 10.908 42.6299 11.076C42.4619 11.236 42.2459 11.316 41.9819 11.316ZM44.1388 15.06V14.88C44.1388 14.256 44.2628 13.724 44.5108 13.284C44.7588 12.836 45.0908 12.496 45.5068 12.264C45.9228 12.024 46.3788 11.904 46.8748 11.904C47.4348 11.904 47.8588 12.004 48.1468 12.204C48.4428 12.404 48.6588 12.62 48.7948 12.852H48.9988V12.072H50.3428V19.128C50.3428 19.52 50.2308 19.828 50.0068 20.052C49.7828 20.284 49.4788 20.4 49.0948 20.4H45.1108V19.2H48.6268C48.8588 19.2 48.9748 19.08 48.9748 18.84V17.124H48.7708C48.6828 17.26 48.5628 17.4 48.4108 17.544C48.2588 17.68 48.0588 17.796 47.8108 17.892C47.5628 17.988 47.2508 18.036 46.8748 18.036C46.3788 18.036 45.9228 17.92 45.5068 17.688C45.0908 17.448 44.7588 17.108 44.5108 16.668C44.2628 16.22 44.1388 15.684 44.1388 15.06ZM47.2588 16.824C47.7548 16.824 48.1668 16.668 48.4948 16.356C48.8228 16.036 48.9868 15.592 48.9868 15.024V14.904C48.9868 14.328 48.8228 13.884 48.4948 13.572C48.1748 13.26 47.7628 13.104 47.2588 13.104C46.7628 13.104 46.3468 13.26 46.0108 13.572C45.6828 13.884 45.5188 14.328 45.5188 14.904V15.024C45.5188 15.592 45.6828 16.036 46.0108 16.356C46.3468 16.668 46.7628 16.824 47.2588 16.824ZM52.0908 18V12.072H53.4468V12.732H53.6508C53.7548 12.532 53.9268 12.356 54.1668 12.204C54.4148 12.044 54.7428 11.964 55.1508 11.964C55.5828 11.964 55.9308 12.052 56.1948 12.228C56.4588 12.404 56.6588 12.628 56.7948 12.9H56.9868C57.1228 12.628 57.3188 12.404 57.5748 12.228C57.8308 12.052 58.1948 11.964 58.6668 11.964C59.0348 11.964 59.3668 12.044 59.6628 12.204C59.9668 12.364 60.2068 12.6 60.3828 12.912C60.5668 13.224 60.6588 13.612 60.6588 14.076V18H59.2788V14.172C59.2788 13.828 59.1868 13.568 59.0028 13.392C58.8188 13.208 58.5628 13.116 58.2348 13.116C57.8748 13.116 57.5868 13.236 57.3708 13.476C57.1628 13.708 57.0588 14.044 57.0588 14.484V18H55.6908V14.172C55.6908 13.828 55.5988 13.568 55.4148 13.392C55.2308 13.208 54.9748 13.116 54.6468 13.116C54.2788 13.116 53.9908 13.236 53.7828 13.476C53.5748 13.708 53.4708 14.044 53.4708 14.484V18H52.0908ZM64.1925 18.168C63.7765 18.168 63.4005 18.096 63.0645 17.952C62.7285 17.8 62.4605 17.584 62.2605 17.304C62.0685 17.024 61.9725 16.68 61.9725 16.272C61.9725 15.872 62.0685 15.536 62.2605 15.264C62.4605 14.992 62.7325 14.788 63.0765 14.652C63.4205 14.508 63.8125 14.436 64.2525 14.436H65.9685V14.076C65.9685 13.764 65.8725 13.512 65.6805 13.32C65.4885 13.12 65.1885 13.02 64.7805 13.02C64.3805 13.02 64.0765 13.116 63.8685 13.308C63.6685 13.492 63.5365 13.732 63.4725 14.028L62.2005 13.608C62.2965 13.296 62.4485 13.012 62.6565 12.756C62.8725 12.5 63.1565 12.296 63.5085 12.144C63.8605 11.984 64.2925 11.904 64.8045 11.904C65.5805 11.904 66.1885 12.1 66.6285 12.492C67.0765 12.876 67.3005 13.436 67.3005 14.172V16.5C67.3005 16.74 67.4125 16.86 67.6365 16.86H68.1405V18H67.1685C66.8805 18 66.6445 17.928 66.4605 17.784C66.2765 17.64 66.1845 17.444 66.1845 17.196V17.172H65.9805C65.9325 17.284 65.8485 17.42 65.7285 17.58C65.6085 17.74 65.4245 17.88 65.1765 18C64.9365 18.112 64.6085 18.168 64.1925 18.168ZM64.4205 17.04C64.8765 17.04 65.2485 16.912 65.5365 16.656C65.8245 16.392 65.9685 16.04 65.9685 15.6V15.48H64.3365C64.0405 15.48 63.8005 15.544 63.6165 15.672C63.4325 15.8 63.3405 15.988 63.3405 16.236C63.3405 16.476 63.4365 16.672 63.6285 16.824C63.8205 16.968 64.0845 17.04 64.4205 17.04Z" fill="#0C0A09"/>
</svg>
